# xmcd
#
# Track frame offsets: 
#        150
#        22518
#        39198
#        62958
#        78621
#        98782
#        122951
#        142841
#        160583
#        183074
#        201226
#
# Disc length: 3096 seconds
#
# Revision: 0
# Processed by: cddbd v1.5.2PL0 Copyright (c) Steve Scherf et al.
# Submitted via: ExactAudioCopy v1.0b3
#
DISCID=810c160b
DTITLE=Inter-Connection - Traces From Heaven
DYEAR=2012
DGENRE=Elektro
TTITLE0=You Could Be Kind
TTITLE1=Shut My Eyes
TTITLE2=Traces From Heaven
TTITLE3=Cry
TTITLE4=So Near So Far
TTITLE5=Riding Out The Storm
TTITLE6=Never Again
TTITLE7=Silence
TTITLE8=My Wilderness
TTITLE9=What Can I Do?
TTITLE10=Reaching Out
EXTD=
EXTT0=
EXTT1=
EXTT2=
EXTT3=
EXTT4=
EXTT5=
EXTT6=
EXTT7=
EXTT8=
EXTT9=
EXTT10=
PLAYORDER=
